<svg xmlns="http://www.w3.org/2000/svg" version="1.1" xmlns:xlink="http://www.w3.org/1999/xlink" width="512" height="512" x="0" y="0" viewBox="0 0 456 456" style="enable-background:new 0 0 512 512" xml:space="preserve" class=""><g><path fill="#ffffff" d="M184 424h-16c-2.207 0-4-1.793-4-4s1.793-4 4-4h16c2.207 0 4 1.793 4 4s-1.793 4-4 4zM272 424h-72c-2.207 0-4-1.793-4-4s1.793-4 4-4h72c2.207 0 4 1.793 4 4s-1.793 4-4 4zm0 0" opacity="1" data-original="#263238" class=""></path><path fill="#ff5252" d="M148 188c0 14.809 4.48 28.559 12.145 40h119.718c7.664-11.441 12.145-25.191 12.145-40 0-39.77-32.23-72-72-72S148 148.23 148 188zm0 0" opacity="1" data-original="#ff5252" class=""></path><path fill="#ffffff" d="M32 52c-8.824 0-16-7.176-16-16s7.176-16 16-16 16 7.176 16 16-7.176 16-16 16zm0-24c-4.414 0-8 3.594-8 8s3.586 8 8 8 8-3.594 8-8-3.586-8-8-8zM72 52c-8.824 0-16-7.176-16-16s7.176-16 16-16 16 7.176 16 16-7.176 16-16 16zm0-24c-4.414 0-8 3.594-8 8s3.586 8 8 8 8-3.594 8-8-3.586-8-8-8zm0 0" opacity="1" data-original="#263238" class=""></path><path fill="#015bd0" d="m250.16 181.105-44.222-26.015c-5.336-3.137-12.06.71-12.06 6.894v52.024c0 6.183 6.724 10.031 12.06 6.894l44.222-26.015c5.266-3.086 5.266-10.688 0-13.782zm0 0" opacity="1" data-original="#ffffff" class=""></path><path fill="#ffffff" d="M201.887 226.031c-2.047 0-4.094-.527-5.957-1.597-3.793-2.168-6.051-6.059-6.051-10.418v-52.024c0-4.36 2.258-8.258 6.05-10.418 3.782-2.16 8.278-2.133 12.048.082l44.214 26.008c3.704 2.176 5.914 6.047 5.914 10.344s-2.21 8.168-5.914 10.344l-44.214 26.007c-1.907 1.114-3.993 1.672-6.09 1.672zm.015-68.054c-.91 0-1.636.335-2.007.543-.606.343-2.016 1.375-2.016 3.472v52.024c0 2.097 1.41 3.129 2.016 3.472.609.344 2.218 1.032 4.015-.023l44.219-26.016c1.781-1.05 1.984-2.762 1.984-3.449s-.191-2.398-1.976-3.45l-44.215-26.007c-.73-.422-1.418-.566-2.02-.566zM412 136c-2.207 0-4-1.793-4-4V96h-36c-2.207 0-4-1.793-4-4s1.793-4 4-4h40c2.207 0 4 1.793 4 4v40c0 2.207-1.793 4-4 4zM347.566 456h-6.847c-16.774 0-31.848-9.32-39.36-24.328L281.527 392H158.473l-19.832 39.672c-7.504 15-22.586 24.328-39.36 24.328h-6.847c-13.168 0-25.532-5.824-33.922-15.984-8.39-10.153-11.778-23.391-9.29-36.329l18.38-95.55c7.59-39.48 42.285-68.137 82.496-68.137H289.91c40.203 0 74.899 28.656 82.496 68.137l18.38 95.55c2.487 12.938-.9 26.176-9.29 36.336-8.39 10.153-20.754 15.977-33.93 15.977zM156 384h128c1.512 0 2.895.855 3.574 2.207l20.938 41.89C314.656 440.376 327 448 340.71 448h6.848c10.777 0 20.89-4.77 27.761-13.07 6.856-8.313 9.633-19.145 7.59-29.73l-18.375-95.552C357.672 273.93 326.281 248 289.902 248H150.078c-36.375 0-67.765 25.93-74.629 61.648L57.07 405.2c-2.039 10.586.739 21.418 7.602 29.73C71.527 443.24 81.648 448 92.426 448h6.847c13.72 0 26.063-7.625 32.2-19.902l20.941-41.891A4.035 4.035 0 0 1 156 384zm-84.488-75.113h.082zm0 0" opacity="1" data-original="#263238" class=""></path><path fill="#ffffff" d="M416 360h-22.176c-2.207 0-4-1.793-4-4s1.793-4 4-4H416c8.824 0 16-7.176 16-16V24c0-8.824-7.176-16-16-16H24C15.176 8 8 15.176 8 24v312c0 8.824 7.176 16 16 16h22.168c2.207 0 4 1.793 4 4s-1.793 4-4 4H24c-13.23 0-24-10.77-24-24V24C0 10.77 10.77 0 24 0h392c13.23 0 24 10.77 24 24v312c0 13.23-10.77 24-24 24zm0 0" opacity="1" data-original="#263238" class=""></path><path fill="#ffffff" d="M160.145 232c-1.29 0-2.551-.625-3.32-1.777C148.433 217.703 144 203.105 144 188c0-41.902 34.098-76 76-76s76 34.098 76 76c0 15.098-4.434 29.695-12.816 42.223a4.004 4.004 0 0 1-5.551 1.105 4.003 4.003 0 0 1-1.106-5.543A67.69 67.69 0 0 0 288 188.008c0-37.496-30.504-68-68-68s-68 30.504-68 68c0 13.512 3.96 26.578 11.465 37.777a3.998 3.998 0 0 1-1.098 5.55 4.064 4.064 0 0 1-2.222.665zm0 0" opacity="1" data-original="#263238" class=""></path><path fill="#ff5252" d="M336 316c0 19.883-16.117 36-36 36s-36-16.117-36-36 16.117-36 36-36 36 16.117 36 36zm0 0" opacity="1" data-original="#ffd740" class=""></path><path fill="#ffffff" d="M300 356c-22.055 0-40-17.945-40-40s17.945-40 40-40 40 17.945 40 40-17.945 40-40 40zm0-72c-17.648 0-32 14.352-32 32s14.352 32 32 32 32-14.352 32-32-14.352-32-32-32zm0 0" opacity="1" data-original="#263238" class=""></path><path fill="#ff5252" d="M168 303.664h-16v-16c0-4.418-3.586-8-8-8h-8c-4.414 0-8 3.582-8 8v16h-16c-4.414 0-8 3.582-8 8v8c0 4.414 3.586 8 8 8h16v16c0 4.414 3.586 8 8 8h8c4.414 0 8-3.586 8-8v-16h16c4.414 0 8-3.586 8-8v-8c0-4.418-3.586-8-8-8zm0 0" opacity="1" data-original="#ffd740" class=""></path><g fill="#263238"><path d="M144 355.664h-8c-6.617 0-12-5.383-12-12v-12h-12c-6.617 0-12-5.383-12-12v-8c0-6.617 5.383-12 12-12h12v-12c0-6.617 5.383-12 12-12h8c6.617 0 12 5.383 12 12v12h12c6.617 0 12 5.383 12 12v8c0 6.617-5.383 12-12 12h-12v12c0 6.617-5.383 12-12 12zm-32-48c-2.2 0-4 1.793-4 4v8c0 2.207 1.8 4 4 4h20v20c0 2.207 1.8 4 4 4h8c2.2 0 4-1.793 4-4v-20h20c2.2 0 4-1.793 4-4v-8c0-2.207-1.8-4-4-4h-20v-20c0-2.207-1.8-4-4-4h-8c-2.2 0-4 1.793-4 4v20zM300 304c-2.207 0-4-1.793-4-4v-20c0-2.207 1.793-4 4-4s4 1.793 4 4v20c0 2.207-1.793 4-4 4zM300 356c-2.207 0-4-1.793-4-4v-20c0-2.207 1.793-4 4-4s4 1.793 4 4v20c0 2.207-1.793 4-4 4zM336 320h-20c-2.207 0-4-1.793-4-4s1.793-4 4-4h20c2.207 0 4 1.793 4 4s-1.793 4-4 4zM284 320h-20c-2.207 0-4-1.793-4-4s1.793-4 4-4h20c2.207 0 4 1.793 4 4s-1.793 4-4 4zM232 368h-24c-6.617 0-12-5.383-12-12v-8c0-6.617 5.383-12 12-12h24c6.617 0 12 5.383 12 12v8c0 6.617-5.383 12-12 12zm-24-24c-2.2 0-4 1.793-4 4v8c0 2.207 1.8 4 4 4h24c2.2 0 4-1.793 4-4v-8c0-2.207-1.8-4-4-4zM436 72H4c-2.207 0-4-1.793-4-4s1.793-4 4-4h432c2.207 0 4 1.793 4 4s-1.793 4-4 4zm0 0" fill="#ffffff" opacity="1" data-original="#263238" class=""></path></g></g></svg>