<svg xmlns="http://www.w3.org/2000/svg" version="1.1" xmlns:xlink="http://www.w3.org/1999/xlink" width="92" height="92" x="0" y="0" viewBox="0 0 511.917 511.917" style="enable-background:new 0 0 512 512" xml:space="preserve" class=""><g><circle cx="351.958" cy="306.832" r="32" fill="#000000" opacity="1" data-original="#000000" class=""></circle><circle cx="159.958" cy="306.832" r="32" fill="#000000" opacity="1" data-original="#000000" class=""></circle><path d="M206.021 177.326a1.996 1.996 0 0 0 1.938 1.506h96c.915 0 1.715-.619 1.938-1.506l16.132-58.699a3 3 0 0 0-2.893-3.795H192.781a3 3 0 0 0-2.893 3.795z" fill="#000000" opacity="1" data-original="#000000" class=""></path><path d="M483.556 197.378c-14.803-41.012-31.613-64.112-40.315-74.231a23.867 23.867 0 0 0-11.282-7.303v-9.011c0-13.255-10.745-24-24-24h-32c-13.255 0-24 10.745-24 24v8h-10.007a3 3 0 0 0-2.893 2.205l-17.664 64.264a17.974 17.974 0 0 1-17.436 13.531h-96a17.974 17.974 0 0 1-17.436-13.531l-17.664-64.264a3 3 0 0 0-2.893-2.205h-10.007v-8c0-13.255-10.745-24-24-24h-32c-13.255 0-24 10.745-24 24v9.011a23.862 23.862 0 0 0-11.282 7.303c-8.703 10.119-25.512 33.219-40.315 74.231C10.257 247.538.715 308.438.003 378.387a24.017 24.017 0 0 0 10.053 19.774l37.06 26.471c10.256 7.327 24.543 5.423 32.525-4.332l56.551-69.118a1.99 1.99 0 0 0-.527-2.978c-15.257-8.992-25.139-26.17-23.535-45.456 1.938-23.303 20.822-42.025 44.14-43.778 28.126-2.114 51.69 20.174 51.69 47.861 0 14.59-6.546 27.675-16.853 36.485-1.413 1.208-.564 3.515 1.294 3.515h127.116c1.861 0 2.705-2.31 1.29-3.52-11.253-9.621-18.022-24.34-16.679-40.549 1.931-23.305 20.801-42.029 44.12-43.791 28.136-2.127 51.712 20.165 51.712 47.859 0 17.609-9.537 33.024-23.711 41.376a1.989 1.989 0 0 0-.52 2.974l56.55 69.118c4.714 5.762 11.626 8.784 18.61 8.784 4.84 0 9.716-1.453 13.915-4.452l37.06-26.471a24.018 24.018 0 0 0 10.053-19.774c-.714-69.947-10.256-130.848-28.361-181.007zm-395.598 9.454h-8a8 8 0 0 1 0-16h8a8 8 0 0 1 0 16zm28 20a8 8 0 0 1-16 0v-8a8 8 0 0 1 16 0zm0-48a8 8 0 0 1-16 0v-8a8 8 0 0 1 16 0zm20 28h-8a8 8 0 0 1 0-16h8a8 8 0 0 1 0 16zm240 4a8 8 0 1 1 0-16 8 8 0 0 1 0 16zm24 24a8 8 0 1 1 0-16 8 8 0 0 1 0 16zm0-48a8 8 0 1 1 0-16 8 8 0 0 1 0 16zm24 24a8 8 0 1 1 0-16 8 8 0 0 1 0 16z" fill="#000000" opacity="1" data-original="#000000" class=""></path></g></svg>